<?xml version="1.0" standalone="no"?>
<svg xmlns:xlink="http://www.w3.org/1999/xlink" id="wave" style="transform:rotate(0deg); transition: 0.3s" viewBox="0 0 1440 490" version="1.1" xmlns="http://www.w3.org/2000/svg"><defs><linearGradient id="sw-gradient-0" x1="0" x2="0" y1="1" y2="0"><stop stop-color="rgba(228, 180, 227, 1)" offset="0%"/><stop stop-color="rgba(228, 180, 227, 1)" offset="100%"/></linearGradient></defs><path style="transform:translate(0, 0px); opacity:1" fill="url(#sw-gradient-0)" d="M0,98L80,81.7C160,65,320,33,480,57.2C640,82,800,163,960,179.7C1120,196,1280,147,1440,138.8C1600,131,1760,163,1920,204.2C2080,245,2240,294,2400,285.8C2560,278,2720,212,2880,196C3040,180,3200,212,3360,187.8C3520,163,3680,82,3840,114.3C4000,147,4160,294,4320,310.3C4480,327,4640,212,4800,196C4960,180,5120,261,5280,302.2C5440,343,5600,343,5760,334.8C5920,327,6080,310,6240,318.5C6400,327,6560,359,6720,343C6880,327,7040,261,7200,228.7C7360,196,7520,196,7680,204.2C7840,212,8000,229,8160,253.2C8320,278,8480,310,8640,318.5C8800,327,8960,310,9120,294C9280,278,9440,261,9600,212.3C9760,163,9920,82,10080,106.2C10240,131,10400,261,10560,261.3C10720,261,10880,131,11040,81.7C11200,33,11360,65,11440,81.7L11520,98L11520,490L11440,490C11360,490,11200,490,11040,490C10880,490,10720,490,10560,490C10400,490,10240,490,10080,490C9920,490,9760,490,9600,490C9440,490,9280,490,9120,490C8960,490,8800,490,8640,490C8480,490,8320,490,8160,490C8000,490,7840,490,7680,490C7520,490,7360,490,7200,490C7040,490,6880,490,6720,490C6560,490,6400,490,6240,490C6080,490,5920,490,5760,490C5600,490,5440,490,5280,490C5120,490,4960,490,4800,490C4640,490,4480,490,4320,490C4160,490,4000,490,3840,490C3680,490,3520,490,3360,490C3200,490,3040,490,2880,490C2720,490,2560,490,2400,490C2240,490,2080,490,1920,490C1760,490,1600,490,1440,490C1280,490,1120,490,960,490C800,490,640,490,480,490C320,490,160,490,80,490L0,490Z"/></svg>